<svg xmlns="http://www.w3.org/2000/svg" width="3533.333" height="2300" viewBox="0 0 2650 1725"
	 preserveAspectRatio="xMidYMid meet" fill="#207aee">
	<path d="M1081 1.1C933.8 8.7 794.4 59.5 678 147.8 517.5 269.7 414.7 452.7 394.6 652.5c-2 19.7-3.6 45.4-3.6 58.6v10.6l-12.7 3.3C204.9 769.4 63.8 910 17.6 1084c-11.9 44.8-17 84.5-17 132 0 30.4 1 45 5 73 25.4 178.7 146.2 331.8 314.9 399 35.4 14.1 78.2 25.5 115.2 30.6 11.7 1.6 12.3 1.8 12.3 4.1v2.3h865.9l866.4-1.3c.4-1 3.5-1.6 9.9-2.1 31.9-2.4 75.1-11.2 109.3-22.3 62.3-20.2 118.8-51.4 170.5-94.3 15.4-12.8 49.3-46.5 62.2-62 62.8-75.5 101.2-162.4 115-260.3 3-21.6 3.8-96.8 1.3-120.5-10.6-100.4-49.9-192.9-115.5-272.2-12.2-14.8-47.4-50.2-61.5-61.9-22.7-18.8-45.9-35.3-69.5-49.4-21.9-13.1-64.8-33.3-87.2-41-1.5-.5-1.5-1.1.2-7.9 8.1-31.7 11.3-82.9 7.5-119.4-12.1-115-76.6-215.5-176.5-275.1-42-25.1-90.6-41.4-142.5-47.9-17.3-2.2-62.4-2.5-79-.6-64.4 7.5-122.7 29.5-172.1 64.8-4.9 3.5-9.1 6.4-9.4 6.4s-3-4.2-6-9.3c-8.6-14.5-26.7-41.1-39.3-57.9C1579.4 133.4 1403 30.6 1209 6.1c-38.7-4.9-91.2-7-128-5zm701.2 562c15 3.2 26.9 13.6 33 28.8l2.3 5.6 1 201.6 55.5-52.6c61.7-58.6 65.9-62.3 74.5-66.6 25.4-12.5 53.1 1.6 57.7 29.4 2 12.3-2.3 24.7-12.9 36.9-3.2 3.7-21.7 20.2-41 36.8l-35.3 30.9c0 .4 19.3 26.8 43 58.7l46 63.9c4.3 8.5 5.7 16.7 4.1 25.2-2.5 13.5-10.3 23.7-22.9 29.6-6.4 3.1-7.2 3.2-19.2 3.2-12.1 0-12.8-.1-19-3.2-3.6-1.8-8.6-5.4-11.2-8s-22.5-29.3-44.3-59.3l-40.7-54.5c-.7 0-8.7 6.7-17.9 15l-16.7 15-.1 27c-.1 29.7-1 37-5.7 45.5-3.8 7.1-13 15.5-21.1 19.3-6.4 3-7.4 3.2-18.3 3.2s-11.9-.2-18.3-3.2c-9.3-4.4-16.9-11.9-21.5-21.2l-3.7-7.5-.3-181.5 1.4-187c6.4-22.1 29.2-35.7 51.6-31zM751.1 584.2c13.4 6.6 22.5 19 24.8 33.8.7 4 1.1 30.1 1.1 66.7V745h165v-64c0-61.9.1-64.2 2.1-70.2 6.1-18.7 22.9-30.8 42.8-30.8 20.6 0 37 12.1 43.1 31.7 2 6.4 2 9.1 2 175.8l-2 175.8c-6.1 19.6-22.5 31.7-43.1 31.7-19.9 0-36.7-12.1-42.8-30.8-2-6-2.1-8.3-2.1-71.2v-65H777v61.2c0 36.4-.4 63.9-1 67.8-2.3 14.7-12.2 27.9-25.7 34.3-6.5 3-7.4 3.2-18.9 3.2-11.9 0-12.1 0-19.6-3.8-13-6.4-22.2-18.3-24.7-32.1-1.5-8.4-1.5-333.8 0-342.2 2.9-15.8 14.4-29 30.4-34.7 3.9-1.3 7.4-1.7 15.6-1.5 9.9.3 11 .6 18 4zm853.3 91.7c27 4.8 53.4 17.1 70.7 32.9 21.4 19.6 16.4 53.2-9.9 65.8-4.7 2.3-7.4 2.8-15.2 3.2-12.2.4-17.7-1.4-30.2-10.1-17.9-12.4-29.2-16.5-47.9-17.4-9-.4-13.4-.2-19.5 1.2-27.5 6.1-47.8 26-57.1 56.2-2.5 8.2-2.7 10.1-2.7 27.8-.1 16.9.1 19.9 2.2 27 11.1 38.6 41.4 61.1 79.7 59.1 6.1-.3 13.9-1.2 17.5-2.1 8.6-2.1 24.6-10 34.1-16.9 10.7-7.8 16.4-9.9 26.9-10 7.5 0 9.3.3 15 3 7.9 3.7 15 10.7 18.8 18.3 2.4 5 2.7 6.7 2.7 16.1 0 9.5-.3 11.1-2.8 16.2-6.7 13.6-31.7 32.2-56.2 41.7-31.9 12.4-74.9 14.4-109.5 5-43-11.7-80.1-42-100-81.7-11.6-23.2-17.1-46.9-17.1-74.2-.1-35.6 8.5-65.1 26.9-92.6 26-38.8 65.3-63.1 112.8-69.9 14.3-2.1 45.3-1.3 60.8 1.4zm-344.9 1.6c20.4 3.1 38.4 9.1 53.1 17.8 11.9 7 28 22.9 34.6 34.3 9.1 15.5 14.6 32.9 17.3 54.2 1.4 10.9 1.5 24.6 1.3 96.2l-.3 83.5-3.2 6.8c-4.2 8.9-12.1 16.8-21 21-9.2 4.3-22.6 5-33.1 1.8-8.6-2.6-17.7-9-22-15.7-3.2-4.7-6.2-12.9-6.2-16.7 0-1.4-1.8-.2-7.2 4.8-17.1 15.9-37.4 26-59.8 29.9-44.3 7.7-86.4-3.7-110.9-30-17.1-18.3-25.1-41.6-23.8-69.4 1.4-27.4 9.8-47.3 27-63.6 22.2-21.2 54.5-31.4 99-31.4 25.4 0 44 2.6 66.1 9.2 5.4 1.6 10.1 2.7 10.3 2.4 1-1-1.8-20.9-3.7-26.2-4.3-12.3-12.5-21.4-24.3-26.9-12-5.7-17.3-6.7-37.2-7.2-21.1-.6-35.8 1-54.1 5.8-17.7 4.6-20.4 5-25.9 4.3-12.7-1.6-23.9-9.4-29.2-20.1-3.9-8-4.4-20.3-1.3-28.6 2.9-7.7 9.2-15.3 15.7-18.9 14.8-8.3 49.8-16.6 79.5-18.8 16.2-1.2 46.8-.4 59.3 1.5zm-370.4 414c1.6.9 3.9 3 4.9 4.8 1.9 3 2 5.3 2 44.6 0 40.6 0 41.4-2.2 45.2-1.4 2.5-3.7 4.6-6.4 5.9-4.1 2-5.6 2.1-60 1.8l-55.9-.3-3.3-2.3c-6.8-4.9-6.7-4.2-6.7-49.7 0-37.9.1-41.3 1.8-43.8 4.1-6.4 12.3-8.4 18.4-4.7 6.2 3.7 6.3 4.6 6.3 39.5v31.5h27v-27c0-29.4.2-30.7 5.6-34.9 3.2-2.6 10.1-2.8 14.5-.5 1.8.9 3.8 3.2 5 5.7 1.7 3.8 1.9 6.8 1.9 30.4v26.3h27v-31.3c0-27.7.2-31.6 1.8-34.7 3.5-7 11.7-9.9 18.3-6.5zm458.8 35.1c5.1 2.1 9.8 6 12.9 10.7 2.4 3.6 2.8 5.3 3.5 17.1.5 7.2 1 64.1 1.3 126.4l.5 113.3-2.7 6c-5 11-14.7 17.3-26.9 17.3-12.6 0-23.7-7.5-28.1-18.9-1.8-4.8-1.9-9.2-1.9-127.5l1.9-127.4c3.4-8.9 11.9-16.2 21.3-18.6 4.6-1.1 13.6-.3 18.2 1.6zm899.3.6c6 2.6 12.9 9.9 15.4 16.3 1.8 4.8 1.9 9.2 1.9 127.5s-.1 122.7-1.9 127.5c-7.4 19.2-32.3 25.2-48 11.5-4.9-4.4-8.8-12.1-9.5-19.2l-.6-5.8-5.9 6.8c-10.8 12.2-24.4 21-38.6 24.9-5.1 1.4-9.9 1.8-22.5 1.7-14.9-.1-16.7-.4-25.7-3.2-18.6-5.9-34.3-16.7-46.2-31.7-9-11.4-14.8-23.6-19.2-40.2-8-30.8-4.9-64.5 8.5-91.1 14.9-29.7 40.3-47.7 73.1-51.7 27.9-3.4 49.4 4 69.8 23.9l7.2 7v-41.9c0-41.9 0-42 2.4-47 7.4-16 23.7-22.2 39.8-15.3zm-1100.8 9.7c12.5 2.6 14.6 3.3 27.9 8.8 11.6 4.8 26 13.2 31.8 18.7 2 1.9 4.9 6 6.4 9.1 2.4 5.1 2.7 6.8 2.3 13.4-.4 8.5-2.7 14.2-8.1 19.8l-3.1 3.3h-36.1l-6-4c-8.2-5.6-19.4-10.7-29-13.2-6.4-1.7-10.8-2.1-22-2.1-12.7 0-14.8.3-23 3-21.3 6.9-37.1 20.7-47.2 40.8-18.2 36.3-10.2 83.8 18.6 109.6 20.1 18 49.1 24.1 77.5 16.3 10.6-3 18.2-6.7 27.9-13.6 12.2-8.7 16.9-10.8 24.6-10.8 23.7 0 36.9 27.7 21.7 45.7-4.3 5.1-23.5 18.8-33.1 23.6-9.8 4.9-20.4 8.7-31.9 11.2-6.1 1.4-11.8 1.6-31.8 1.3l-24.3-.4-18.5-5.3c-10.2-2.8-19.4-5.8-20.5-6.5s-4.6-2.3-7.9-3.5c-14.9-5.5-24.2-11.8-36.1-24.2-12.7-13.3-20.8-25.3-27.6-41.1-8.4-19.3-12-36.9-12-59.2 0-26.5 5.1-47.5 16.6-69.3 21-39.7 57.1-65 104-72.9 12.1-2 46-1.1 58.9 1.5zm441.1 64.1c18 2.3 39.5 11.7 54.6 23.9 20.2 16.4 34.8 41 39 65.8 1.5 8.8 1.5 28.9 0 37.8-5.5 32.9-28.5 63.2-59.7 78.8-17.8 8.9-33.8 12.7-53.8 12.7-20.5 0-35.9-3.6-54-12.7-30-15-51.5-42.6-58-74.3-5.2-25.8-1.8-50.4 10.2-73.3 11.1-21.2 28-37.5 49.8-47.9 23.1-11.2 44-14.3 71.9-10.8zm218.7 2.7c5.8 2.6 12.4 9.2 15.2 15.2 2 4.5 2.1 6.1 2.7 60.1.3 33.8 1 56.9 1.6 59.2 5 17.4 16.5 26.1 34.8 26.1 18.7 0 30.7-9.1 35.8-27 .6-2.4 1.3-24.6 1.6-58.8.6-53.5.7-55.1 2.7-59.6 6.6-14.3 23.4-21.3 37.8-15.9 7.9 3 14.6 9.7 17.5 17.3 2.1 5.7 2.1 6.4 2.1 89.2 0 82.7 0 83.5-2.1 89.1-5.1 13.6-20.1 21.7-34.1 18.4-13.2-3.1-23.8-15.8-23.8-28.5 0-2.8-.2-2.7-6.4 4.1-12.6 13.8-25.1 21.7-39.8 25-9.4 2.2-29.3 1.4-38.8-1.4-23.9-7.1-39.1-23.5-46.2-50-2-7.3-2.1-11-2.5-73.7l-.4-66.1 2.2-5.9c5.9-15.9 24.4-23.7 40.1-16.8zM889 1229.3c10.3 5.4 10.7 19.6.8 25.7-3 1.8-5.1 2-25.5 2H842v54h21.3c20.1 0 21.5.1 25.7 2.2 10.3 5.4 10.8 19.7.8 25.8-3.2 1.9-5.2 2-61.2 2-57.6 0-57.9 0-61.4-2.2-4.6-2.8-7.6-9.5-6.7-14.9.9-5.2 5.6-10.6 10.3-11.9 2-.5 12.8-1 24-1H815v-54h-22.1c-21 0-22.4-.1-25.7-2.2-4.6-2.8-7.6-9.5-6.7-14.9.9-4.9 5.5-10.6 9.9-11.8 1.7-.5 28.1-1 58.7-1l55.6-.1 4.3 2.3zm-106.3 137.2c5.5 3.6 6.3 6.6 6.3 23.7v15.8h47.8c47.6 0 47.8 0 52.2 2.2 10.3 5.4 10.8 19.7.8 25.8-3.2 1.9-5.2 2-52 2H789v15.6c0 17.6-.9 20.9-6.5 24.4-6.2 3.8-15 1.7-19.2-4.7-1.7-2.5-1.8-6.1-1.8-49.8 0-45.2.1-47.1 2-50.4 3.8-6.4 13-8.6 19.2-4.6zM1734 1489c0 .5-.8 1-1.7 1-1.5 0-1.6-.2-.3-1 1.9-1.2 2-1.2 2 0zm-523.5-634c-30 4.1-45.7 18.6-45.9 42.5 0 7.8.4 9.8 2.8 15.2 7.3 16.1 24.7 24.1 49.6 23 20.3-1 36.7-6.9 47.9-17.3 12-11 16-20.5 16.8-39.6l.6-12.7-4.6-2c-17.5-7.5-48-11.6-67.2-9.1zm937.5 396c-20.8 2.5-37.6 17.8-43.6 40.1-1.2 4.5-1.7 10.1-1.7 18.9 0 10.7.4 13.7 2.6 20.5 7.4 22.8 26.3 37.5 48.2 37.5 23 0 41.8-14.8 49.1-38.5 1.4-4.6 1.9-9.2 1.9-20s-.5-15.4-1.9-20c-7.9-25.8-29.9-41.3-54.6-38.5zm-587 .7c-5.7.5-15.8 3.7-21.7 7.1-11 6.1-20.4 19.1-24.4 33.4-2.6 9.5-2.7 24.8-.1 33.8 5.6 19.2 18.7 33.5 36.3 39.6 7.7 2.7 27.2 2.7 34.9 0 9-3.1 15.7-7.4 21.9-14.2 24.8-27.1 18.3-74.1-12.8-92.7-8.6-5.1-22.4-8-34.1-7z"/>
</svg>